<?xml version="1.0" encoding="UTF-8" standalone="no"?>
<!DOCTYPE svg PUBLIC "-//W3C//DTD SVG 1.1//EN"
 "http://www.w3.org/Graphics/SVG/1.1/DTD/svg11.dtd">
<!-- Generated by graphviz version 14.1.1 (20251213.1925)
 -->
<!-- Title: InheritanceTree Pages: 1 -->
<svg width="384pt" height="213pt"
 viewBox="0.00 0.00 384.00 213.00" xmlns="http://www.w3.org/2000/svg" xmlns:xlink="http://www.w3.org/1999/xlink">
<g id="graph0" class="graph" transform="scale(1 1) rotate(0) translate(4 208.5)">
<title>InheritanceTree</title>
<polygon fill="white" stroke="none" points="-4,4 -4,-208.5 380.25,-208.5 380.25,4 -4,4"/>
<text xml:space="preserve" text-anchor="middle" x="188.12" y="-7.2" font-family="Times New Roman,serif" font-size="14.00">simple_clipboard &#45; Inheritance Hierarchy</text>
<!-- SIMPLE_CLIPBOARD -->
<g id="node1" class="node">
<title>SIMPLE_CLIPBOARD</title>
<path fill="none" stroke="black" d="M136,-60.5C136,-60.5 12,-60.5 12,-60.5 6,-60.5 0,-54.5 0,-48.5 0,-48.5 0,-36.5 0,-36.5 0,-30.5 6,-24.5 12,-24.5 12,-24.5 136,-24.5 136,-24.5 142,-24.5 148,-30.5 148,-36.5 148,-36.5 148,-48.5 148,-48.5 148,-54.5 142,-60.5 136,-60.5"/>
<text xml:space="preserve" text-anchor="middle" x="74" y="-37.45" font-family="Times New Roman,serif" font-size="14.00">SIMPLE_CLIPBOARD</text>
</g>
<!-- LIB_TESTS -->
<g id="node2" class="node">
<title>LIB_TESTS</title>
<path fill="none" stroke="black" d="M104.12,-132.5C104.12,-132.5 43.88,-132.5 43.88,-132.5 37.88,-132.5 31.88,-126.5 31.88,-120.5 31.88,-120.5 31.88,-108.5 31.88,-108.5 31.88,-102.5 37.88,-96.5 43.88,-96.5 43.88,-96.5 104.12,-96.5 104.12,-96.5 110.12,-96.5 116.12,-102.5 116.12,-108.5 116.12,-108.5 116.12,-120.5 116.12,-120.5 116.12,-126.5 110.12,-132.5 104.12,-132.5"/>
<text xml:space="preserve" text-anchor="middle" x="74" y="-109.45" font-family="Times New Roman,serif" font-size="14.00">LIB_TESTS</text>
</g>
<!-- TEST_SET_BASE -->
<g id="node3" class="node">
<title>TEST_SET_BASE</title>
<path fill="none" stroke="black" d="M364.25,-132.5C364.25,-132.5 268,-132.5 268,-132.5 262,-132.5 256,-126.5 256,-120.5 256,-120.5 256,-108.5 256,-108.5 256,-102.5 262,-96.5 268,-96.5 268,-96.5 364.25,-96.5 364.25,-96.5 370.25,-96.5 376.25,-102.5 376.25,-108.5 376.25,-108.5 376.25,-120.5 376.25,-120.5 376.25,-126.5 370.25,-132.5 364.25,-132.5"/>
<text xml:space="preserve" text-anchor="middle" x="316.12" y="-109.45" font-family="Times New Roman,serif" font-size="14.00">TEST_SET_BASE</text>
</g>
<!-- LIB_TESTS&#45;&gt;TEST_SET_BASE -->
<g id="edge1" class="edge">
<title>LIB_TESTS&#45;&gt;TEST_SET_BASE</title>
<path fill="none" stroke="black" d="M116.45,-114.5C116.45,-114.5 244,-114.5 244,-114.5"/>
<polygon fill="none" stroke="black" points="244,-118 254,-114.5 244,-111 244,-118"/>
</g>
<!-- TEST_APP -->
<g id="node4" class="node">
<title>TEST_APP</title>
<path fill="none" stroke="black" d="M101.88,-204.5C101.88,-204.5 46.12,-204.5 46.12,-204.5 40.12,-204.5 34.12,-198.5 34.12,-192.5 34.12,-192.5 34.12,-180.5 34.12,-180.5 34.12,-174.5 40.12,-168.5 46.12,-168.5 46.12,-168.5 101.88,-168.5 101.88,-168.5 107.88,-168.5 113.88,-174.5 113.88,-180.5 113.88,-180.5 113.88,-192.5 113.88,-192.5 113.88,-198.5 107.88,-204.5 101.88,-204.5"/>
<text xml:space="preserve" text-anchor="middle" x="74" y="-181.45" font-family="Times New Roman,serif" font-size="14.00">TEST_APP</text>
</g>
</g>
</svg>
