<?xml version="1.0" encoding="UTF-8" standalone="no"?>
<!DOCTYPE svg PUBLIC "-//W3C//DTD SVG 1.1//EN"
 "http://www.w3.org/Graphics/SVG/1.1/DTD/svg11.dtd">
<!-- Generated by graphviz version 14.1.1 (20251213.1925)
 -->
<!-- Title: ContractCoverage Pages: 1 -->
<svg width="816pt" height="687pt"
 viewBox="48.00 48.00 768.00 639.00" xmlns="http://www.w3.org/2000/svg" xmlns:xlink="http://www.w3.org/1999/xlink">
<g id="graph0" class="graph" transform="scale(0.998959 0.998959) rotate(0) translate(52.05 635.8)">
<title>ContractCoverage</title>
<polygon fill="white" stroke="none" points="-4,4 -4,-587.75 716.75,-587.75 716.75,4 -4,4"/>
<text xml:space="preserve" text-anchor="middle" x="356.38" y="-570.25" font-family="Times New Roman,serif" font-size="10.00">simple_clipboard &#45; Contract Coverage</text>
<g id="clust1" class="cluster">
<title>cluster_SIMPLE_CLIPBOARD</title>
<polygon fill="white" stroke="black" points="0,-56 0,-446.5 390,-446.5 390,-56 0,-56"/>
<text xml:space="preserve" text-anchor="middle" x="195" y="-429.2" font-family="Times New Roman,serif" font-size="14.00">SIMPLE_CLIPBOARD</text>
</g>
<g id="clust2" class="cluster">
<title>cluster_LIB_TESTS</title>
<polygon fill="white" stroke="black" points="447.25,0 447.25,-228.5 712.75,-228.5 712.75,0 447.25,0"/>
<text xml:space="preserve" text-anchor="middle" x="580" y="-211.2" font-family="Times New Roman,serif" font-size="14.00">LIB_TESTS</text>
</g>
<g id="clust3" class="cluster">
<title>cluster_TEST_APP</title>
<polygon fill="white" stroke="black" points="336,-504 336,-564.5 400,-564.5 400,-504 336,-504"/>
<text xml:space="preserve" text-anchor="middle" x="368" y="-547.2" font-family="Times New Roman,serif" font-size="14.00">TEST_APP</text>
</g>
<g id="clust4" class="cluster">
<title>cluster_legend</title>
<polygon fill="lightyellow" stroke="black" points="447.62,-280.12 447.62,-468.38 660.38,-468.38 660.38,-280.12 447.62,-280.12"/>
<text xml:space="preserve" text-anchor="middle" x="554" y="-454.88" font-family="Times New Roman,serif" font-size="10.00">Legend</text>
</g>
<!-- SIMPLE_CLIPBOARD_text -->
<g id="node1" class="node">
<title>SIMPLE_CLIPBOARD_text</title>
<polygon fill="lightgray" stroke="black" points="72,-278 18,-278 18,-242 72,-242 72,-278"/>
<text xml:space="preserve" text-anchor="middle" x="45" y="-256.12" font-family="Times New Roman,serif" font-size="10.00">text</text>
</g>
<!-- SIMPLE_CLIPBOARD_l_result -->
<g id="node2" class="node">
<title>SIMPLE_CLIPBOARD_l_result</title>
<polygon fill="lightcoral" stroke="black" points="66,-338 12,-338 12,-302 66,-302 66,-338"/>
<text xml:space="preserve" text-anchor="middle" x="39" y="-316.12" font-family="Times New Roman,serif" font-size="10.00">l_result</text>
</g>
<!-- SIMPLE_CLIPBOARD_has_text -->
<g id="node3" class="node">
<title>SIMPLE_CLIPBOARD_has_text</title>
<polygon fill="lightcoral" stroke="black" points="372,-422 318,-422 318,-386 372,-386 372,-422"/>
<text xml:space="preserve" text-anchor="middle" x="345" y="-400.13" font-family="Times New Roman,serif" font-size="10.00">has_text</text>
</g>
<!-- SIMPLE_CLIPBOARD_is_empty -->
<g id="node4" class="node">
<title>SIMPLE_CLIPBOARD_is_empty</title>
<polygon fill="lightcoral" stroke="black" points="72,-122 18,-122 18,-86 72,-86 72,-122"/>
<text xml:space="preserve" text-anchor="middle" x="45" y="-100.12" font-family="Times New Roman,serif" font-size="10.00">is_empty</text>
</g>
<!-- SIMPLE_CLIPBOARD_format_count -->
<g id="node5" class="node">
<title>SIMPLE_CLIPBOARD_format_count</title>
<polygon fill="lightcoral" stroke="black" points="136.38,-398 65.63,-398 65.63,-362 136.38,-362 136.38,-398"/>
<text xml:space="preserve" text-anchor="middle" x="101" y="-376.12" font-family="Times New Roman,serif" font-size="10.00">format_count</text>
</g>
<!-- SIMPLE_CLIPBOARD_set_text -->
<g id="node6" class="node">
<title>SIMPLE_CLIPBOARD_set_text</title>
<polygon fill="palegreen" stroke="black" points="312,-128 258,-128 258,-92 312,-92 312,-128"/>
<text xml:space="preserve" text-anchor="middle" x="285" y="-106.12" font-family="Times New Roman,serif" font-size="10.00">set_text</text>
</g>
<!-- SIMPLE_CLIPBOARD_clear -->
<g id="node7" class="node">
<title>SIMPLE_CLIPBOARD_clear</title>
<polygon fill="khaki" stroke="black" points="150,-122 96,-122 96,-86 150,-86 150,-122"/>
<text xml:space="preserve" text-anchor="middle" x="123" y="-100.12" font-family="Times New Roman,serif" font-size="10.00">clear</text>
</g>
<!-- SIMPLE_CLIPBOARD_copy_text -->
<g id="node8" class="node">
<title>SIMPLE_CLIPBOARD_copy_text</title>
<polygon fill="khaki" stroke="black" points="374.62,-248 317.38,-248 317.38,-212 374.62,-212 374.62,-248"/>
<text xml:space="preserve" text-anchor="middle" x="346" y="-226.12" font-family="Times New Roman,serif" font-size="10.00">copy_text</text>
</g>
<!-- SIMPLE_CLIPBOARD_paste -->
<g id="node9" class="node">
<title>SIMPLE_CLIPBOARD_paste</title>
<polygon fill="lightcoral" stroke="black" points="54,-218 0,-218 0,-182 54,-182 54,-218"/>
<text xml:space="preserve" text-anchor="middle" x="27" y="-196.12" font-family="Times New Roman,serif" font-size="10.00">paste</text>
</g>
<!-- SIMPLE_CLIPBOARD_last_operation_succeeded -->
<g id="node10" class="node">
<title>SIMPLE_CLIPBOARD_last_operation_succeeded</title>
<polygon fill="lightgray" stroke="black" points="216.88,-242 95.12,-242 95.12,-206 216.88,-206 216.88,-242"/>
<text xml:space="preserve" text-anchor="middle" x="156" y="-220.12" font-family="Times New Roman,serif" font-size="10.00">last_operation_succeeded</text>
</g>
<!-- SIMPLE_CLIPBOARD_pointer_to_string -->
<g id="node11" class="node">
<title>SIMPLE_CLIPBOARD_pointer_to_string</title>
<polygon fill="lightcoral" stroke="black" points="176.63,-338 89.38,-338 89.38,-302 176.63,-302 176.63,-338"/>
<text xml:space="preserve" text-anchor="middle" x="133" y="-316.12" font-family="Times New Roman,serif" font-size="10.00">pointer_to_string</text>
</g>
<!-- SIMPLE_CLIPBOARD_c_scb_get_text -->
<g id="node12" class="node">
<title>SIMPLE_CLIPBOARD_c_scb_get_text</title>
<polygon fill="lightcoral" stroke="black" points="318.12,-188 239.87,-188 239.87,-152 318.12,-152 318.12,-188"/>
<text xml:space="preserve" text-anchor="middle" x="279" y="-166.12" font-family="Times New Roman,serif" font-size="10.00">c_scb_get_text</text>
</g>
<!-- SIMPLE_CLIPBOARD_c_scb_set_text -->
<g id="node13" class="node">
<title>SIMPLE_CLIPBOARD_c_scb_set_text</title>
<polygon fill="lightcoral" stroke="black" points="154.38,-182 77.62,-182 77.62,-146 154.38,-146 154.38,-182"/>
<text xml:space="preserve" text-anchor="middle" x="116" y="-160.12" font-family="Times New Roman,serif" font-size="10.00">c_scb_set_text</text>
</g>
<!-- SIMPLE_CLIPBOARD_c_scb_clear -->
<g id="node14" class="node">
<title>SIMPLE_CLIPBOARD_c_scb_clear</title>
<polygon fill="lightcoral" stroke="black" points="238,-128 174,-128 174,-92 238,-92 238,-128"/>
<text xml:space="preserve" text-anchor="middle" x="206" y="-106.12" font-family="Times New Roman,serif" font-size="10.00">c_scb_clear</text>
</g>
<!-- SIMPLE_CLIPBOARD_c_scb_has_text -->
<g id="node15" class="node">
<title>SIMPLE_CLIPBOARD_c_scb_has_text</title>
<polygon fill="lightcoral" stroke="black" points="234.5,-398 155.5,-398 155.5,-362 234.5,-362 234.5,-398"/>
<text xml:space="preserve" text-anchor="middle" x="195" y="-376.12" font-family="Times New Roman,serif" font-size="10.00">c_scb_has_text</text>
</g>
<!-- SIMPLE_CLIPBOARD_c_scb_is_empty -->
<g id="node16" class="node">
<title>SIMPLE_CLIPBOARD_c_scb_is_empty</title>
<polygon fill="lightcoral" stroke="black" points="340,-362 258,-362 258,-326 340,-326 340,-362"/>
<text xml:space="preserve" text-anchor="middle" x="299" y="-340.12" font-family="Times New Roman,serif" font-size="10.00">c_scb_is_empty</text>
</g>
<!-- SIMPLE_CLIPBOARD_c_scb_format_count -->
<g id="node17" class="node">
<title>SIMPLE_CLIPBOARD_c_scb_format_count</title>
<polygon fill="lightcoral" stroke="black" points="296.62,-302 197.38,-302 197.38,-266 296.62,-266 296.62,-302"/>
<text xml:space="preserve" text-anchor="middle" x="247" y="-280.12" font-family="Times New Roman,serif" font-size="10.00">c_scb_format_count</text>
</g>
<!-- SIMPLE_CLIPBOARD_c_free -->
<g id="node18" class="node">
<title>SIMPLE_CLIPBOARD_c_free</title>
<polygon fill="lightcoral" stroke="black" points="390,-92 336,-92 336,-56 390,-56 390,-92"/>
<text xml:space="preserve" text-anchor="middle" x="363" y="-70.12" font-family="Times New Roman,serif" font-size="10.00">c_free</text>
</g>
<!-- LIB_TESTS_test_basic_set_get -->
<g id="node19" class="node">
<title>LIB_TESTS_test_basic_set_get</title>
<polygon fill="lightcoral" stroke="black" points="712.75,-204 621.75,-204 621.75,-168 712.75,-168 712.75,-204"/>
<text xml:space="preserve" text-anchor="middle" x="667.25" y="-182.12" font-family="Times New Roman,serif" font-size="10.00">test_basic_set_get</text>
</g>
<!-- LIB_TESTS_test_has_text_query -->
<g id="node20" class="node">
<title>LIB_TESTS_test_has_text_query</title>
<polygon fill="lightcoral" stroke="black" points="699.5,-43 601,-43 601,-7 699.5,-7 699.5,-43"/>
<text xml:space="preserve" text-anchor="middle" x="650.25" y="-21.12" font-family="Times New Roman,serif" font-size="10.00">test_has_text_query</text>
</g>
<!-- LIB_TESTS_test_clear_clipboard -->
<g id="node21" class="node">
<title>LIB_TESTS_test_clear_clipboard</title>
<polygon fill="lightcoral" stroke="black" points="664.88,-148 565.62,-148 565.62,-112 664.88,-112 664.88,-148"/>
<text xml:space="preserve" text-anchor="middle" x="615.25" y="-126.12" font-family="Times New Roman,serif" font-size="10.00">test_clear_clipboard</text>
</g>
<!-- LIB_TESTS_test_multiline_text -->
<g id="node22" class="node">
<title>LIB_TESTS_test_multiline_text</title>
<polygon fill="lightcoral" stroke="black" points="541.25,-197 447.25,-197 447.25,-161 541.25,-161 541.25,-197"/>
<text xml:space="preserve" text-anchor="middle" x="494.25" y="-175.12" font-family="Times New Roman,serif" font-size="10.00">test_multiline_text</text>
</g>
<!-- LIB_TESTS_test_format_count_query -->
<g id="node23" class="node">
<title>LIB_TESTS_test_format_count_query</title>
<polygon fill="lightcoral" stroke="black" points="586.62,-92 467.88,-92 467.88,-56 586.62,-56 586.62,-92"/>
<text xml:space="preserve" text-anchor="middle" x="527.25" y="-70.12" font-family="Times New Roman,serif" font-size="10.00">test_format_count_query</text>
</g>
<!-- LIB_TESTS_test_copy_text_alias -->
<g id="node24" class="node">
<title>LIB_TESTS_test_copy_text_alias</title>
<polygon fill="lightcoral" stroke="black" points="554.62,-36 453.87,-36 453.87,0 554.62,0 554.62,-36"/>
<text xml:space="preserve" text-anchor="middle" x="504.25" y="-14.12" font-family="Times New Roman,serif" font-size="10.00">test_copy_text_alias</text>
</g>
<!-- TEST_APP_make -->
<g id="node25" class="node">
<title>TEST_APP_make</title>
<polygon fill="lightcoral" stroke="black" points="395,-540 341,-540 341,-504 395,-504 395,-540"/>
<text xml:space="preserve" text-anchor="middle" x="368" y="-518.12" font-family="Times New Roman,serif" font-size="10.00">make</text>
</g>
<!-- legend_full -->
<g id="node26" class="node">
<title>legend_full</title>
<polygon fill="palegreen" stroke="black" points="649.88,-385.12 535.62,-385.12 535.62,-344.12 649.88,-344.12 649.88,-385.12"/>
<text xml:space="preserve" text-anchor="middle" x="592.75" y="-367.82" font-family="Times New Roman,serif" font-size="14.00">Full Contract</text>
<text xml:space="preserve" text-anchor="middle" x="592.75" y="-351.32" font-family="Times New Roman,serif" font-size="14.00">(require + ensure)</text>
</g>
<!-- legend_partial -->
<g id="node27" class="node">
<title>legend_partial</title>
<polygon fill="khaki" stroke="black" points="660.38,-321.12 543.12,-321.12 543.12,-280.12 660.38,-280.12 660.38,-321.12"/>
<text xml:space="preserve" text-anchor="middle" x="601.75" y="-303.82" font-family="Times New Roman,serif" font-size="14.00">Partial Contract</text>
<text xml:space="preserve" text-anchor="middle" x="601.75" y="-287.32" font-family="Times New Roman,serif" font-size="14.00">(require or ensure)</text>
</g>
<!-- legend_none -->
<g id="node28" class="node">
<title>legend_none</title>
<polygon fill="lightcoral" stroke="black" points="642.12,-443.63 559.38,-443.63 559.38,-407.63 642.12,-407.63 642.12,-443.63"/>
<text xml:space="preserve" text-anchor="middle" x="600.75" y="-420.58" font-family="Times New Roman,serif" font-size="14.00">No Contract</text>
</g>
<!-- legend_attr -->
<g id="node29" class="node">
<title>legend_attr</title>
<polygon fill="lightgray" stroke="black" points="536.12,-449.12 471.38,-449.12 471.38,-408.12 536.12,-408.12 536.12,-449.12"/>
<text xml:space="preserve" text-anchor="middle" x="503.75" y="-431.82" font-family="Times New Roman,serif" font-size="14.00">Attribute</text>
<text xml:space="preserve" text-anchor="middle" x="503.75" y="-415.32" font-family="Times New Roman,serif" font-size="14.00">(n/a)</text>
</g>
<!-- legend_stats -->
<g id="node30" class="node">
<title>legend_stats</title>
<polygon fill="white" stroke="black" points="507.88,-387.12 447.63,-387.12 447.63,-280.12 513.88,-280.12 513.88,-381.12 507.88,-387.12"/>
<polyline fill="none" stroke="black" points="507.88,-387.12 507.88,-381.12"/>
<polyline fill="none" stroke="black" points="513.88,-381.12 507.88,-381.12"/>
<text xml:space="preserve" text-anchor="middle" x="480.75" y="-369.82" font-family="Times New Roman,serif" font-size="14.00">Statistics</text>
<text xml:space="preserve" text-anchor="middle" x="480.75" y="-353.32" font-family="Times New Roman,serif" font-size="14.00">Full: 1</text>
<text xml:space="preserve" text-anchor="middle" x="480.75" y="-336.82" font-family="Times New Roman,serif" font-size="14.00">Partial: 2</text>
<text xml:space="preserve" text-anchor="middle" x="480.75" y="-320.32" font-family="Times New Roman,serif" font-size="14.00">None: 20</text>
<text xml:space="preserve" text-anchor="middle" x="480.75" y="-303.82" font-family="Times New Roman,serif" font-size="14.00">Attr: 2</text>
<text xml:space="preserve" text-anchor="middle" x="480.75" y="-287.32" font-family="Times New Roman,serif" font-size="14.00">Total: 25</text>
</g>
</g>
</svg>
