<?xml version="1.0" encoding="UTF-8" standalone="no"?>
<!DOCTYPE svg PUBLIC "-//W3C//DTD SVG 1.1//EN"
 "http://www.w3.org/Graphics/SVG/1.1/DTD/svg11.dtd">
<!-- Generated by graphviz version 14.1.1 (20251213.1925)
 -->
<!-- Title: Dependencies Pages: 1 -->
<svg width="358pt" height="213pt"
 viewBox="0.00 0.00 358.00 213.00" xmlns="http://www.w3.org/2000/svg" xmlns:xlink="http://www.w3.org/1999/xlink">
<g id="graph0" class="graph" transform="scale(1 1) rotate(0) translate(4 208.5)">
<title>Dependencies</title>
<polygon fill="white" stroke="none" points="-4,4 -4,-208.5 354,-208.5 354,4 -4,4"/>
<text xml:space="preserve" text-anchor="middle" x="175" y="-7.2" font-family="Times New Roman,serif" font-size="14.00">simple_clipboard &#45; Dependencies</text>
<!-- simple_clipboard -->
<g id="node1" class="node">
<title>simple_clipboard</title>
<polygon fill="lightblue" stroke="black" points="110.5,-132.5 0,-132.5 0,-96.5 110.5,-96.5 110.5,-132.5"/>
<text xml:space="preserve" text-anchor="middle" x="55.25" y="-109.45" font-family="Times New Roman,serif" font-size="14.00">simple_clipboard</text>
</g>
<!-- simple_testing -->
<g id="node2" class="node">
<title>simple_testing</title>
<polygon fill="lightblue" stroke="black" points="350,-204.5 254.5,-204.5 254.5,-168.5 350,-168.5 350,-204.5"/>
<text xml:space="preserve" text-anchor="middle" x="302.25" y="-181.45" font-family="Times New Roman,serif" font-size="14.00">simple_testing</text>
</g>
<!-- simple_clipboard&#45;&gt;simple_testing -->
<g id="edge1" class="edge">
<title>simple_clipboard&#45;&gt;simple_testing</title>
<path fill="none" stroke="black" stroke-dasharray="5,2" d="M110.91,-120.5C173.05,-120.5 265,-120.5 265,-120.5 265,-120.5 265,-156.6 265,-156.6"/>
<polygon fill="black" stroke="black" points="261.5,-156.6 265,-166.6 268.5,-156.6 261.5,-156.6"/>
</g>
<!-- base -->
<g id="node3" class="node">
<title>base</title>
<polygon fill="lightgray" stroke="black" points="329.25,-132.5 275.25,-132.5 275.25,-96.5 329.25,-96.5 329.25,-132.5"/>
<text xml:space="preserve" text-anchor="middle" x="302.25" y="-109.45" font-family="Times New Roman,serif" font-size="14.00">base</text>
</g>
<!-- simple_clipboard&#45;&gt;base -->
<g id="edge2" class="edge">
<title>simple_clipboard&#45;&gt;base</title>
<path fill="none" stroke="black" stroke-dasharray="5,2" d="M110.99,-108.5C110.99,-108.5 263.39,-108.5 263.39,-108.5"/>
<polygon fill="black" stroke="black" points="263.39,-112 273.39,-108.5 263.39,-105 263.39,-112"/>
</g>
<!-- testing -->
<g id="node4" class="node">
<title>testing</title>
<polygon fill="lightgray" stroke="black" points="329.25,-60.5 275.25,-60.5 275.25,-24.5 329.25,-24.5 329.25,-60.5"/>
<text xml:space="preserve" text-anchor="middle" x="302.25" y="-37.45" font-family="Times New Roman,serif" font-size="14.00">testing</text>
</g>
<!-- simple_clipboard&#45;&gt;testing -->
<g id="edge3" class="edge">
<title>simple_clipboard&#45;&gt;testing</title>
<path fill="none" stroke="black" stroke-dasharray="5,2" d="M55,-96.33C55,-75 55,-42.5 55,-42.5 55,-42.5 263.33,-42.5 263.33,-42.5"/>
<polygon fill="black" stroke="black" points="263.33,-46 273.33,-42.5 263.33,-39 263.33,-46"/>
</g>
</g>
</svg>
